<svg width="1024" height="1024" viewBox="0 0 1024 1024" fill="none" xmlns="http://www.w3.org/2000/svg">
<g clip-path="url(#clip0_9137_1459)">
<path fill-rule="evenodd" clip-rule="evenodd" d="M0 234C0 104.765 104.765 0 234 0H790C919.235 0 1024 104.765 1024 234V790C1024 919.235 919.235 1024 790 1024H234C104.765 1024 0 919.235 0 790V234Z" fill="url(#paint0_linear_9137_1459)"/>
<path d="M674.137 718.732C671.815 718.732 669.487 718.684 667.157 718.59C634.257 768.536 578.486 798.927 518.001 798.927V753.374C566.868 753.374 611.544 726.799 634.934 683.835L642.383 670.152L657.835 672.134C663.244 672.828 668.727 673.179 674.137 673.179C744.181 673.179 801.203 616.157 801.203 546.113C801.203 508.549 783.776 471.755 754.644 447.815L745.66 440.433L746.371 428.827C746.518 426.419 746.593 423.97 746.593 421.545C746.593 354.327 691.868 299.602 624.648 299.602C600.436 299.602 577.112 306.671 556.992 320.1L540.034 331.419L526.914 315.812C503.621 288.105 469.717 272.302 433.538 272.302C366.319 272.302 311.598 327.026 311.598 394.245C311.598 396.122 311.642 398.021 311.73 399.9L312.455 415.372L298.333 421.733C252.424 442.412 222.865 488.104 222.865 538.434C222.865 608.95 280.268 666.355 350.781 666.355C358.278 666.355 365.792 665.7 373.125 664.409L390.228 661.398L397.659 677.094C419.623 723.484 466.765 753.374 518.001 753.374V798.927C454.763 798.927 396.325 765.146 364.364 711.379C359.846 711.73 355.312 711.907 350.781 711.907C255.11 711.907 177.312 634.107 177.312 538.434C177.312 475.219 211.683 417.421 266.202 386.956C270.029 297.949 343.603 226.75 433.538 226.75C476.65 226.75 517.522 243.16 548.454 272.375C571.962 260.339 597.953 254.05 624.648 254.05C716.566 254.05 791.397 328.423 792.14 420.167C826.586 452.605 846.756 498.714 846.756 546.113C846.756 641.315 769.339 718.732 674.137 718.732V718.732ZM604.528 571.14C589.059 577.057 573.828 580.054 559.178 580.054C544.478 580.054 529.976 577.04 516.117 571.114C515.558 570.881 515.558 570.881 515 570.643C509.892 568.445 507.705 565.799 507.705 559.992V552.237C507.705 545.418 511.634 541.029 518.036 541.029L519.471 541.224L519.853 541.373C532.529 546.372 545.751 548.905 559.155 548.905C572.613 548.905 586.704 546.353 601.032 541.312L602.321 541.029H602.679C609.083 541.029 613.012 545.418 613.012 552.237V559.992C613.012 566.164 610.894 568.402 604.976 570.948L604.528 571.14ZM414.607 496.792L456.479 485.801L414.508 474.784C410.156 473.645 407.017 470.21 407.017 464.2V451C407.017 445.232 410.48 442.748 414.442 442.748C415.723 442.748 417.05 443.026 418.377 443.526L493.107 467.702C498.784 469.594 501.907 474.153 501.907 480.399V491.2C501.907 497.444 498.787 502.006 493.102 503.901L418.214 528.126C416.949 528.5 415.821 528.684 414.723 528.684C410.032 528.684 407.017 525.31 407.017 520.4V507.399C407.017 501.149 410.259 497.705 414.607 496.792V496.792Z" fill="url(#paint1_linear_9137_1459)"/>
</g>
<defs>
<linearGradient id="paint0_linear_9137_1459" x1="512" y1="7.41498e-06" x2="512" y2="1024" gradientUnits="userSpaceOnUse">
<stop stop-color="#1C2653"/>
<stop offset="1" stop-color="#060816"/>
</linearGradient>
<linearGradient id="paint1_linear_9137_1459" x1="512.034" y1="267.008" x2="512.016" y2="798.008" gradientUnits="userSpaceOnUse">
<stop stop-color="#F8FBFF"/>
<stop offset="1" stop-color="#BFC0C0" stop-opacity="0.9"/>
</linearGradient>
<clipPath id="clip0_9137_1459">
<rect width="1024" height="1024" rx="49.9512" fill="white"/>
</clipPath>
</defs>
</svg>
